<mxfile host="app.diagrams.net" modified="2023-06-13T03:21:45.431Z" agent="Mozilla/5.0 (Windows NT 10.0; Win64; x64) AppleWebKit/537.36 (KHTML, like Gecko) Chrome/114.0.0.0 Safari/537.36" version="21.3.8" etag="aeZZXAaa0SadFOmiNLbn" type="github">
  <diagram name="第 1 页" id="zsoBGu-Kh0CQ9WEHbR9P">
    <mxGraphModel>
      <root>
        <mxCell id="0" />
        <mxCell id="1" parent="0" />
      </root>
    </mxGraphModel>
  </diagram>
</mxfile>
